<?xml version="1.0" encoding="iso-8859-1"?>
<!-- Generator: Adobe Illustrator 19.0.0, SVG Export Plug-In . SVG Version: 6.00 Build 0)  -->
<svg version="1.1" id="Capa_1" xmlns="http://www.w3.org/2000/svg" xmlns:xlink="http://www.w3.org/1999/xlink" x="0px" y="0px"
	 viewBox="0 0 512 512" style="enable-background:new 0 0 512 512;" xml:space="preserve">
<g>
	<rect x="162.138" y="298.669" style="fill:#0377BC;" width="187.734" height="51.203"/>
	<path style="fill:#0377BC;" d="M358.4,17.067V128c-0.027,9.414-7.652,17.039-17.067,17.067H170.666
		c-9.414-0.028-17.039-7.652-17.067-17.067V17.067c0.014-4.707,3.826-8.519,8.534-8.534H179.2c4.707,0.014,8.519,3.826,8.534,8.534
		v25.6c0.014,4.707,3.826,8.519,8.534,8.534h34.133c4.707-0.014,8.519-3.826,8.534-8.534v-25.6c0.014-4.707,3.826-8.519,8.534-8.534
		h17.065c4.707,0.014,8.519,3.826,8.534,8.534v25.6c0.014,4.707,3.826,8.519,8.534,8.534h34.133
		c4.707-0.014,8.519-3.826,8.534-8.534v-25.6c0.014-4.707,3.826-8.519,8.534-8.534h17.067C354.574,8.548,358.385,12.36,358.4,17.067
		z"/>
</g>
<g>
	<rect x="162.138" y="298.669" style="fill:#02A9F4;" width="153.599" height="51.203"/>
	<path style="fill:#02A9F4;" d="M324.267,42.667V128c-0.028,9.414-7.652,17.039-17.067,17.067H170.666
		c-9.414-0.028-17.039-7.652-17.067-17.067V42.667c0.014,4.707,3.826,8.519,8.534,8.534H230.4c4.707-0.014,8.519-3.826,8.534-8.534
		c0.014,4.707,3.826,8.519,8.534,8.534h68.267C320.441,51.186,324.252,47.374,324.267,42.667z"/>
</g>
<path d="M349.866,358.4H162.134c-4.712,0.001-8.532-3.818-8.534-8.529c0-0.001,0-0.003,0-0.004v-51.2
	c-0.001-4.712,3.818-8.532,8.529-8.534c0.001,0,0.003,0,0.004,0h187.733c4.712-0.001,8.532,3.818,8.534,8.529
	c0,0.001,0,0.003,0,0.004v51.2c0.001,4.712-3.818,8.532-8.529,8.534C349.87,358.4,349.869,358.4,349.866,358.4z M170.666,341.334
	h170.666V307.2H170.666V341.334z"/>
<path style="fill:#C52828;" d="M315.733,349.866h-153.6v153.6h42.667V435.2c-0.024-21.692,13.666-41.029,34.133-48.214
	c5.469-1.99,11.247-3.002,17.067-2.987c28.26,0.042,51.158,22.94,51.2,51.2v68.267h42.667V349.866H315.733z"/>
<path style="fill:#F44335;" d="M315.733,349.866v153.6h-8.534V435.2c-0.042-28.26-22.94-51.158-51.2-51.2
	c-5.82-0.015-11.597,0.996-17.067,2.987c-20.467,7.185-34.158,26.522-34.133,48.214v68.267h-42.667V349.866H315.733z"/>
<path d="M349.866,512h-42.667c-4.712,0.001-8.532-3.818-8.534-8.529c0-0.001,0-0.003,0-0.004V435.2
	c-0.041-23.547-19.119-42.625-42.667-42.667c-23.553,0.027-42.639,19.114-42.667,42.667v68.267c0.001,4.712-3.818,8.532-8.529,8.534
	c-0.001,0-0.003,0-0.004,0h-42.667c-4.712,0.001-8.532-3.818-8.534-8.529c0-0.001,0-0.003,0-0.004V349.866
	c-0.001-4.712,3.818-8.532,8.529-8.534c0.001,0,0.003,0,0.004,0h187.733c4.712-0.001,8.532,3.818,8.534,8.529
	c0,0.001,0,0.003,0,0.004v153.6c0.001,4.712-3.818,8.532-8.529,8.534C349.87,512,349.869,512,349.866,512z M315.733,494.933h25.6
	V358.4H170.666v136.533h25.6V435.2c0.038-32.974,26.759-59.695,59.734-59.734c32.974,0.04,59.694,26.76,59.734,59.734v59.734
	H315.733z"/>
<path style="fill:#37474F;" d="M307.2,435.2v68.267h-102.4V435.2c0.031-23.319,15.82-43.669,38.4-49.493
	c4.172-1.134,8.477-1.708,12.8-1.707C284.259,384.042,307.157,406.941,307.2,435.2z"/>
<path style="fill:#607D8B;" d="M281.6,435.2v68.267h-76.8V435.2c0.031-23.319,15.82-43.669,38.4-49.493
	c8.877,2.185,16.971,6.794,23.382,13.312C276.231,408.581,281.641,421.615,281.6,435.2z"/>
<path d="M307.2,512h-102.4c-4.712,0.001-8.532-3.818-8.534-8.529c0-0.001,0-0.003,0-0.004V435.2
	c0.038-32.974,26.759-59.695,59.734-59.734c32.974,0.04,59.694,26.76,59.734,59.734v68.267c0.001,4.712-3.818,8.532-8.529,8.534
	C307.203,512,307.201,512,307.2,512z M213.333,494.933h85.333V435.2c-0.041-23.547-19.119-42.625-42.667-42.667
	c-23.553,0.027-42.639,19.114-42.667,42.667v59.734H213.333z"/>
<g>
	<polygon style="fill:#FFB301;" points="162.134,349.866 162.134,401.066 59.734,503.466 8.534,503.466 8.534,452.266 
		59.734,452.266 59.734,401.066 110.934,401.066 110.934,349.866 	"/>
	<polygon style="fill:#FFB301;" points="477.867,503.466 435.2,503.466 349.866,401.066 349.866,349.866 	"/>
</g>
<path d="M59.734,512h-51.2c-4.712,0.001-8.532-3.818-8.534-8.529c0-0.001,0-0.003,0-0.004v-51.2
	c-0.001-4.712,3.818-8.532,8.529-8.534c0.001,0,0.003,0,0.004,0H51.2v-42.667c-0.001-4.712,3.818-8.532,8.529-8.534
	c0.001,0,0.003,0,0.004,0H102.4v-42.667c-0.001-4.712,3.818-8.532,8.529-8.534c0.001,0,0.003,0,0.004,0h51.2
	c4.712-0.001,8.532,3.818,8.534,8.529c0,0.001,0,0.003,0,0.004v51.2c-0.001,2.263-0.9,4.434-2.5,6.033l-102.4,102.4
	C64.167,511.101,61.996,512,59.734,512z M17.067,494.933H56.2l97.4-97.4V358.4h-34.133v42.667c0.001,4.712-3.818,8.532-8.529,8.534
	c-0.001,0-0.003,0-0.004,0H68.267v42.667c0.001,4.712-3.818,8.532-8.529,8.534c-0.001,0-0.003,0-0.004,0H17.067V494.933z"/>
<path d="M477.867,512H435.2c-2.533-0.001-4.935-1.126-6.558-3.071l-85.333-102.4c-1.276-1.534-1.974-3.466-1.976-5.462v-51.2
	c-0.002-4.713,3.818-8.535,8.531-8.536c2.535-0.001,4.939,1.126,6.561,3.074l128,153.6c3.016,3.624,2.522,9.007-1.103,12.021
	C481.79,511.301,479.86,511.999,477.867,512z M439.2,494.933h20.449L358.4,373.437v24.542L439.2,494.933z"/>
<path d="M503.466,512h-25.6c-4.713,0-8.534-3.821-8.534-8.534c0-4.713,3.821-8.534,8.534-8.534h25.6
	c4.713,0,8.534,3.821,8.534,8.534C512,508.179,508.179,512,503.466,512z"/>
<rect x="179.195" y="145.07" style="fill:#C52828;" width="153.599" height="153.599"/>
<rect x="179.195" y="145.07" style="fill:#F44335;" width="119.463" height="153.599"/>
<path d="M332.8,307.2H179.2c-4.712,0.001-8.532-3.818-8.534-8.529c0-0.001,0-0.003,0-0.004V145.067
	c-0.001-4.712,3.818-8.532,8.529-8.534c0.001,0,0.003,0,0.004,0h153.6c4.712-0.001,8.532,3.818,8.534,8.529c0,0.001,0,0.003,0,0.004
	v153.6c0.001,4.712-3.818,8.532-8.529,8.534C332.803,307.2,332.802,307.2,332.8,307.2z M187.733,290.134h136.533V153.6H187.733
	V290.134z"/>
<path style="fill:#37474F;" d="M298.667,221.866c-0.008,23.56-19.106,42.659-42.667,42.667c-4.334-0.013-8.645-0.645-12.8-1.877
	c-22.528-7.136-35.005-31.182-27.869-53.71c4.203-13.27,14.599-23.666,27.869-27.869c4.155-1.232,8.466-1.864,12.8-1.877
	C279.561,179.209,298.658,198.306,298.667,221.866z"/>
<path style="fill:#607D8B;" d="M273.067,221.866c0.003,18.654-12.083,35.16-29.867,40.789c-22.528-7.136-35.005-31.182-27.869-53.71
	c4.203-13.27,14.599-23.666,27.869-27.869C260.984,186.708,273.069,203.212,273.067,221.866z"/>
<path d="M255.999,273.067c-28.276,0-51.2-22.923-51.2-51.2s22.923-51.2,51.2-51.2s51.2,22.923,51.2,51.2
	C307.169,250.131,284.264,273.035,255.999,273.067z M255.999,187.733c-18.852,0-34.133,15.282-34.133,34.133
	s15.282,34.133,34.133,34.133c18.852,0,34.133-15.282,34.133-34.133C290.114,203.024,274.843,187.753,255.999,187.733z"/>
<path d="M341.334,153.6H170.666c-14.132-0.016-25.585-11.468-25.6-25.6V17.067C145.077,7.645,152.712,0.011,162.134,0H179.2
	c9.422,0.011,17.056,7.645,17.067,17.067v25.6H230.4v-25.6C230.411,7.645,238.045,0.011,247.467,0h17.067
	c9.422,0.011,17.056,7.645,17.067,17.067v25.6h34.133v-25.6C315.744,7.645,323.379,0.011,332.8,0h17.067
	c9.422,0.011,17.056,7.645,17.067,17.067V128C366.918,142.132,355.465,153.585,341.334,153.6z M162.134,17.067V128
	c0.004,4.711,3.822,8.529,8.534,8.534h170.666c4.711-0.004,8.529-3.822,8.534-8.534V17.092l-17.067-0.025v25.6
	c-0.011,9.422-7.645,17.056-17.067,17.067h-34.133c-9.422-0.011-17.056-7.645-17.067-17.067v-25.6h-17.067v25.6
	c-0.011,9.422-7.645,17.056-17.067,17.067h-34.133c-9.422-0.011-17.056-7.645-17.067-17.067v-25.6H162.134z"/>
<g>
</g>
<g>
</g>
<g>
</g>
<g>
</g>
<g>
</g>
<g>
</g>
<g>
</g>
<g>
</g>
<g>
</g>
<g>
</g>
<g>
</g>
<g>
</g>
<g>
</g>
<g>
</g>
<g>
</g>
</svg>
