<?xml version="1.0" encoding="utf-8"?>
<!-- Generator: Adobe Illustrator 19.2.1, SVG Export Plug-In . SVG Version: 6.00 Build 0)  -->
<svg version="1.1" id="Layer_1" xmlns="http://www.w3.org/2000/svg" xmlns:xlink="http://www.w3.org/1999/xlink" x="0px" y="0px"
	 viewBox="0 0 438.6 71.6" style="enable-background:new 0 0 438.6 71.6;" xml:space="preserve">
<style type="text/css">
	.st0{fill:#4A4A4A;}
</style>
<path class="st0" d="M198.3,71.6c-1.4,0-6.1-0.3-7.1-3.7c-0.9-3.1,2.3-6.3,4-8.1c4.1-4.2,9.2-8.1,16.4-12.7l0.1-0.1l0-0.1
	c0.7-6.8,0.2-13.8-0.3-21l-0.1-1.1l-0.4,0.3c-4.4,3.4-9,6.4-13.9,9.6l-1.4,0.9c-0.7,0.5-1.5,0.9-2.2,1.4c-2.1,1.3-4.2,2.7-6.3,4.2
	l-0.2,0.1l0.1,0.2c1.2,4,2.1,9-1.5,12c-1.4,1.2-3.4,1.9-5.1,1.9c-1.3,0-3.6-0.5-4.2-3.5c-0.8-4,3.6-7.8,6.3-10.1
	c0.4-0.4,0.9-0.7,1.3-1.1l0.2-0.1l-0.1-0.4c-0.2-0.6-0.4-1.1-0.6-1.7c-0.2-0.7-0.5-1.4-0.8-2.2l-0.5-1.5l-0.3,0.2
	c-0.1,0.1-0.3,0.2-0.4,0.2c-5.4,3.2-12,4.6-17.7,5.7c-10.6,2.1-21.6,3-31.8,3.7c-37,2.6-74.5,2.6-107.7,2.6h-10l0,0.2
	c-0.3,1.4-1.1,2.8-1.8,4L12,51.8c-1.6,2.7-3.4,4.3-5.7,4.9c-0.1,0-0.2,0-0.2,0c-0.4,0-0.7-0.3-0.9-0.5c-1.3-1.7,0.3-4,1.9-5.9
	c0.3-0.4,0.6-0.7,1-1.1l0.6-0.6l-0.8,0.1l-1.6,0.2c-0.8,0.1-1.7,0.2-2.7,0.2c-1.5,0-2.5-0.3-3.1-0.9c-0.5-0.5-0.7-1-0.5-1.6
	c0.2-1.1,1.5-2.2,2.5-2.6c0.7-0.3,1.5-0.4,2.3-0.4c1.2,0,2.5,0.3,3.7,0.5l0.9,0.2l-0.7-0.7C8.1,43,7.4,42,6.6,40.9
	c-1-1.4-2.8-4.1-2-5.9c0.3-0.6,0.7-0.9,1.2-0.9c1.1,0,2.5,1.2,3.4,2.2c2.2,2.4,3.5,5.3,4.8,8.3l0.1,0.2h0.2c13.9,0,25.4,0,36.1-0.1
	l7.5-0.1c30.3-0.2,61.6-0.5,92-4.1c0.9-0.1,1.9-0.2,2.9-0.3c9.1-1,20.4-2.3,27.9-7.9l0.2-0.1l-0.1-0.2c-0.8-2.7-1.7-6.8-0.3-10.2
	c0.9-2.2,3.7-3.9,6.2-3.9c1.2,0,2.8,0.4,3.7,2.2c2,4-2,9.5-6.1,13.1l-0.1,0.1l0.1,0.2c0.4,1.2,0.8,2.3,1.1,3.4
	c0.2,0.6,0.7,2.1,0.7,2.1l0.4-0.2c3.1-2.3,6.5-4.4,9.8-6.5c4.2-2.6,8.5-5.4,12.5-8.6c0.8-0.6,1.6-1.3,2.4-2l0.1-0.1l0-0.1
	c-0.3-9.6,1.1-16.2,4.1-19.3c1.3-1.4,3-2.1,5-2.1c0.5,0,1.1,0,1.6,0.1c2.7,0.5,4.3,1.5,4.9,3.2c1.3,4.2-4.6,11.6-8.3,15.3
	c-1.3,1.3-2.7,2.6-4.4,4l-0.1,0.1l0.3,3.2c0.4,5.4,0.8,10.4,0.5,15.8c-0.1,0.9-0.1,2-0.2,3l0,0.6l0.5-0.3c1.9-1.2,3.8-2.3,5.7-3.4
	c1.8-1.1,3.6-2.1,5.3-3.2c0.6-0.4,1.3-0.8,2-1.2c2.3-1.4,4.7-2.9,7-4.4l0.2-0.1l-0.1-0.2c-1.9-4.4-2.4-7.9,0.5-11.8
	c1.3-1.7,3-2.6,4.7-2.6c2.6,0,4.6,2,5.2,5.1c0.9,4.4-3.2,7.8-6.8,10.3l-0.2,0.1l0.1,0.2c0.3,0.5,0.5,1,0.7,1.4
	c0.3,0.6,0.6,1.2,0.9,1.9c0.3,0.7,0.7,1.4,1.1,2.2l0.1,0.2l0.2-0.1c1.3-0.4,2.7-0.6,3.9-0.7c7-0.9,14.3-1.1,20.5-1.1c2,0,4,0,6,0
	l1.7,0c27.7,0.2,55.8,1.9,83,3.6c22.2,1.4,45.1,2.8,67.7,3.4l0.3,0l0-0.3c0.2-1.4,1.1-2.9,1.8-4.2l0.1-0.2c1.6-2.7,3.4-4.3,5.7-4.9
	c0.1,0,0.2,0,0.2,0c0.4,0,0.7,0.3,0.9,0.5c1.3,1.7-0.3,4-2,5.9c-0.3,0.3-0.6,0.7-0.9,1l-0.7,0.7l2.4-0.3c0.8-0.1,1.7-0.2,2.7-0.2
	c1.5,0,2.5,0.3,3.1,0.9c0.5,0.5,0.7,1,0.5,1.6c-0.2,1.1-1.5,2.2-2.5,2.6c-0.7,0.3-1.5,0.4-2.3,0.4c-1.2,0-2.5-0.3-3.7-0.5l-0.9-0.2
	l0.7,0.7c0.7,0.8,1.4,1.7,2.3,2.9c1,1.4,2.8,4.1,2,5.9c-0.3,0.6-0.7,0.9-1.2,0.9c-1.1,0-2.5-1.2-3.4-2.2c-2.1-2.4-3.5-5.3-4.7-8.1
	l-0.1-0.2l-0.2,0c-2.8-0.1-5.5-0.2-8.1-0.3c-14.7-0.7-29.7-1.7-44.2-2.7c-30.7-2-62.5-4.1-93.7-4.1c-6.9,0-13.8,0.1-20.3,0.3
	c-4.3,0.1-8.2,0.3-12.2,0.8c-1.1,0.1-2.2,0.4-3.2,0.6l-0.3,0.1l0.1,0.3c1.1,3.1,1.3,5.6,0.7,7.7c-0.8,2.5-3.7,4.5-6.4,4.5
	c-1.3,0-2.4-0.4-3.3-1.3c-0.9-0.8-1.3-1.9-1.3-3.1c0-2.9,2.5-6.3,4.7-8.3c0.5-0.4,1-0.8,1.6-1.2l0.2-0.1l-0.1-0.2
	c-0.5-1.1-1-2.2-1.5-3.3c-0.3-0.6-0.6-1.2-0.8-1.8l-0.1-0.3l-0.3,0.2c-0.5,0.3-1,0.6-1.4,0.9c-3.9,2.6-8,5.2-12,7.6
	c-2.8,1.7-5.6,3.5-8.4,5.3l-0.1,0.1l0,0.1c-1.8,13.7-6.4,21.1-13.9,22.2C199.5,71.5,198.9,71.6,198.3,71.6z M210.6,51.3
	c-1.7,1.2-3.1,2.1-4.4,3c-0.5,0.4-1.2,0.8-1.9,1.3c-3.6,2.4-9.1,6.1-10.1,9.9c-0.3,0.9-0.2,1.7,0.3,2.2c0.6,0.8,1.8,1.1,3.7,1.1
	c0.2,0,0.4,0,0.6,0c3.2-0.1,5.9-1.9,8.1-5.5c2-3.3,3.4-7.1,4.3-11.7l0.1-0.7L210.6,51.3z M427.7,49.6c0.5,1,1,1.8,1.4,2.6
	c0.6,1,1.3,1.9,2.1,2.6l1,1.1l-0.6-1.4c-0.9-1.7-2-3.6-3.5-5.2l-1.3-1.4L427.7,49.6z M10.1,50.1c-0.1,0.1-0.2,0.2-0.3,0.3l-0.2,0.2
	c-0.7,0.7-2.1,2.1-2.6,3.2l-0.4,0.8l0.8-0.5c1.5-0.9,2.4-2.4,3-3.4c0.1-0.1,0.4-0.7,0.4-0.7l0.8-1.4l-1.2,1.1L10.1,50.1z
	 M184.4,43.5c-1.9,1.7-3.4,3.4-4.5,5.1c-1.1,1.7-1,2.7-0.7,3.2c0.3,0.5,0.8,0.8,1.6,0.8c1.6,0,3.7-1.3,4.4-3.3
	c0.5-1.4,0.4-3.2-0.3-5.6l-0.1-0.5L184.4,43.5z M239.5,43.4c-2.5,1.4-3.9,3.2-4.1,5.5c-0.1,0.8,0.1,1.5,0.5,1.9
	c0.4,0.4,0.9,0.6,1.5,0.6c1.4,0,3.2-1.2,3.4-3c0.2-1.2-0.2-2.5-0.6-3.7l-0.1-0.4c-0.1-0.2-0.1-0.4-0.2-0.6l-0.2-0.5L239.5,43.4z
	 M4.8,45.7c-1.2,0-2,0.3-2.5,0.9l-0.4,0.4L2.4,47c0.2,0,0.4,0.1,0.6,0.1c0.6,0.1,1.2,0.1,1.9,0.1c1.3,0,2.8-0.1,4.1-0.4l1.3-0.2
	l-1.3-0.4c-1-0.2-2-0.4-3-0.5C5.5,45.7,5.2,45.7,4.8,45.7z M433.8,44.7c-1.3,0-2.8,0.1-4.1,0.4l-1.2,0.3l1.2,0.2c1,0.2,2,0.4,3,0.5
	c0.4,0,0.7,0.1,1.1,0.1c1.2,0,2-0.3,2.5-0.9l0.4-0.4l-0.5-0.1c-0.2,0-0.4-0.1-0.6-0.1C435.1,44.7,434.5,44.7,433.8,44.7z M7,37.5
	c0.9,1.7,2,3.6,3.5,5.2l1.2,1.3l-0.7-1.6c-0.5-1-1-1.8-1.4-2.6c-0.6-1-1.3-1.9-2.1-2.6l-1.3-1.4L7,37.5z M431.3,37.7
	c-1.5,0.9-2.4,2.4-3,3.4c-0.1,0.2-0.2,0.4-0.3,0.6l-0.1,0.1l-0.6,1.3l1.1-0.9c0.1-0.1,0.2-0.2,0.3-0.2c0.1-0.1,0.2-0.2,0.3-0.3
	l0.3-0.3c0.7-0.7,2.1-2.1,2.6-3.2l0.4-0.8L431.3,37.7z M239.9,21c-2.2,0-3.8,3.4-3.9,5.2c0,1.3,0.3,2.7,1.1,4.5l0.2,0.4l0.3-0.2
	c0.4-0.3,0.8-0.6,1.2-1c1-0.8,3.9-3.2,4-5.5c0.1-0.9-0.2-1.6-0.9-2.3C241.3,21.3,240.6,21,239.9,21z M185.7,20.9
	c-1,0-2.3,0.8-2.9,3.2c-0.4,1.7,0,3.7,0.4,5.3l0.1,0.5l0.4-0.4c1.2-1.3,2.3-2.8,3.1-4.4c0.7-1.3,0.8-2.6,0.3-3.4
	C186.8,21.2,186.3,20.9,185.7,20.9z M221.4,2.7c-1.9,0-4.2,1.5-5.1,2.9c-2.5,3.9-2.7,9.3-2.6,13l0,0.7l0.5-0.4
	c3-2.7,5.4-5.3,7.2-7.8l0.2-0.3c1.2-1.5,3.3-4.4,2.4-6.3C223.6,3.3,222.6,2.7,221.4,2.7z"/>
</svg>
