<?xml version="1.0" encoding="iso-8859-1"?>
<!-- Generator: Adobe Illustrator 19.0.0, SVG Export Plug-In . SVG Version: 6.00 Build 0)  -->
<svg version="1.1" id="Layer_1" xmlns="http://www.w3.org/2000/svg" xmlns:xlink="http://www.w3.org/1999/xlink" x="0px" y="0px"
	 viewBox="0 0 512.004 512.004" style="enable-background:new 0 0 512.004 512.004;" xml:space="preserve">
<g>
	<g>
		<path style="fill:#F9EBB0;" d="M432.546,132.414c-1.774,0-3.558-0.53-5.12-1.642c-0.98-0.697-98.931-70.471-149.831-102.524
			c-4.122-2.595-5.367-8.042-2.763-12.173c2.595-4.122,8.033-5.358,12.173-2.763c51.324,32.318,149.689,102.382,150.678,103.089
			c3.964,2.825,4.89,8.342,2.057,12.314C438.019,131.125,435.3,132.414,432.546,132.414"/>
		<path style="fill:#F9EBB0;" d="M79.46,132.414c-2.754,0-5.473-1.289-7.194-3.699c-2.834-3.972-1.907-9.49,2.057-12.314
			c0.989-0.706,99.354-70.771,150.678-103.089c4.14-2.586,9.578-1.359,12.173,2.763c2.604,4.131,1.359,9.578-2.763,12.173
			C183.511,60.301,85.56,130.074,84.58,130.772C83.018,131.884,81.235,132.414,79.46,132.414"/>
	</g>
	<path style="fill:#805333;" d="M256.003,88.276c-24.338,0-44.138-19.8-44.138-44.138S231.665,0,256.003,0
		s44.138,19.8,44.138,44.138S280.341,88.276,256.003,88.276"/>
	<polygon style="fill:#AC563D;" points="0.002,512.004 512.002,512.004 512.002,123.591 0.002,123.591 	"/>
	<g>
		<path style="fill:#ED8261;" d="M0.002,136.069l68.793,68.793c1.721,1.721,3.981,2.586,6.241,2.586s4.52-0.865,6.241-2.586
			c3.452-3.452,3.452-9.031,0-12.482l-68.793-68.793H0.002V136.069z"/>
		<path style="fill:#ED8261;" d="M512.002,123.586H499.52l-67.505,67.496c-3.443,3.452-3.443,9.039,0,12.491
			c1.73,1.721,3.99,2.587,6.241,2.587c2.26,0,4.52-0.865,6.25-2.587l67.496-67.505V123.586z"/>
		<path style="fill:#ED8261;" d="M512.002,499.517l-82.035-82.035c-3.452-3.452-9.031-3.452-12.482,0s-3.452,9.031,0,12.482
			l82.035,82.035h12.482V499.517z"/>
		<path style="fill:#ED8261;" d="M68.796,430.724L0.002,499.518V512h12.482l68.793-68.793c3.452-3.452,3.452-9.031,0-12.482
			C77.826,427.273,72.247,427.273,68.796,430.724"/>
	</g>
	<polygon style="fill:#ECF0F1;" points="52.968,459.039 459.037,459.039 459.037,176.556 52.968,176.556 	"/>
	<polygon style="fill:#4C8056;" points="53.04,459.034 140.186,459.034 208.053,343.949 162.37,273.655 	"/>
	<polygon style="fill:#71C285;" points="140.184,459.034 356.345,459.034 387.242,406.652 285.954,211.862 	"/>
	<polygon style="fill:#4C8056;" points="459.037,459.034 459.037,330.796 444.851,308.966 356.345,459.034 	"/>
	<polygon style="fill:#71C285;" points="192.872,320.587 162.364,273.66 124.476,337.898 135.881,353.108 153.536,335.453 
		171.191,353.108 	"/>
	<polygon style="fill:#4C8056;" points="360.391,355.013 285.957,211.865 230.449,305.984 250.646,353.106 277.129,326.623 
		303.612,379.589 321.267,335.451 	"/>
	<polygon style="fill:#71C285;" points="459.037,330.793 444.851,308.962 409.62,368.698 432.554,379.583 459.037,391.88 	"/>
</g>
<g>
</g>
<g>
</g>
<g>
</g>
<g>
</g>
<g>
</g>
<g>
</g>
<g>
</g>
<g>
</g>
<g>
</g>
<g>
</g>
<g>
</g>
<g>
</g>
<g>
</g>
<g>
</g>
<g>
</g>
</svg>
